<svg width="28" height="28" viewBox="0 0 28 28" fill="none" xmlns="http://www.w3.org/2000/svg">
<g clip-path="url(#clip0_5394_15651)">
<path d="M26.7305 22.455V21.9939C26.7305 20.6228 26.7305 19.2477 26.7305 17.8766C26.729 17.6028 26.6896 17.3306 26.6132 17.0676C26.2087 15.6723 25.78 14.2769 25.3594 12.8815C25.2057 12.3719 25.1369 12.3274 24.6071 12.3274H19.3492V12.6793C19.3492 15.3972 19.3492 18.1138 19.3492 20.8291C19.3553 20.9247 19.3553 21.0206 19.3492 21.1162C19.3385 21.2295 19.2859 21.3347 19.2018 21.4113C19.1176 21.4879 19.0079 21.5303 18.8942 21.5303C18.7804 21.5303 18.6707 21.4879 18.5865 21.4113C18.5024 21.3347 18.4498 21.2295 18.4391 21.1162C18.433 21.0206 18.433 20.9247 18.4391 20.8291V9.32635C18.4391 8.75202 18.3218 8.63473 17.7516 8.63473H16.1701C15.8385 8.63473 15.6605 8.46891 15.6605 8.1777C15.6575 8.11245 15.6689 8.04736 15.6939 7.98702C15.7189 7.92668 15.7569 7.87258 15.8052 7.82857C15.8534 7.78457 15.9108 7.75172 15.9732 7.73237C16.0355 7.71302 16.1014 7.70765 16.1661 7.71662C16.7687 7.71662 17.3795 7.71662 17.9781 7.71662C18.3432 7.71662 18.6933 7.86137 18.9519 8.11914C19.2104 8.37692 19.3562 8.72669 19.3573 9.09177C19.3573 9.8481 19.3573 10.6085 19.3573 11.4012H24.7203C25.0592 11.3663 25.3989 11.4588 25.6733 11.6607C25.9477 11.8626 26.1372 12.1594 26.2047 12.4932C26.6779 14.0544 27.139 15.6156 27.6041 17.1768C27.6363 17.2872 27.6526 17.4016 27.6526 17.5166C27.6526 19.8867 27.6526 22.2568 27.6526 24.6269C27.6526 25.0759 27.4989 25.2255 27.0419 25.2255H25.7962C25.7148 25.7545 25.5044 26.2552 25.1834 26.6834C24.8624 27.1116 24.4408 27.4541 23.9559 27.6806C23.2105 28.0357 22.356 28.0865 21.5737 27.8221C21.1418 27.6746 20.7456 27.4383 20.4106 27.1284C20.0756 26.8185 19.8092 26.4419 19.6286 26.0227C19.448 25.6036 19.3571 25.1513 19.362 24.695C19.3668 24.2386 19.4671 23.7883 19.6566 23.3731H12.1863C12.1013 23.3731 12.0123 23.3731 11.9274 23.3731C11.8722 23.3732 11.8175 23.362 11.7668 23.3402C11.7161 23.3184 11.6704 23.2864 11.6325 23.2462C11.5946 23.206 11.5653 23.1585 11.5465 23.1066C11.5276 23.0547 11.5196 22.9995 11.5229 22.9444C11.5092 22.8324 11.5401 22.7195 11.609 22.6302C11.6779 22.5408 11.7792 22.4823 11.891 22.4671C11.9958 22.455 12.1017 22.455 12.2065 22.4671C14.8273 22.4671 17.4644 22.4671 20.0691 22.4671C20.234 22.4619 20.3928 22.4038 20.5221 22.3013C21.099 21.821 21.826 21.558 22.5767 21.558C23.3274 21.558 24.0544 21.821 24.6314 22.3013C24.7013 22.3644 24.7831 22.413 24.872 22.4442C24.9608 22.4754 25.055 22.4887 25.1491 22.4833C25.6546 22.4509 26.1723 22.455 26.7305 22.455ZM20.2794 24.7725C20.281 25.2292 20.4183 25.675 20.6736 26.0536C20.929 26.4322 21.2911 26.7264 21.7139 26.8989C22.1367 27.0714 22.6012 27.1144 23.0485 27.0226C23.4958 26.9307 23.9058 26.7081 24.2264 26.383C24.547 26.0578 24.7638 25.6447 24.8494 25.1962C24.9349 24.7476 24.8853 24.2837 24.7069 23.8634C24.5284 23.4431 24.2292 23.0852 23.847 22.8352C23.4649 22.5851 23.0172 22.4542 22.5605 22.459C22.2587 22.4606 21.9601 22.5218 21.682 22.639C21.4038 22.7562 21.1516 22.9272 20.9396 23.1422C20.7277 23.3571 20.5603 23.6117 20.447 23.8915C20.3337 24.1713 20.2767 24.4707 20.2794 24.7725V24.7725ZM25.5373 23.3933L25.8002 24.2791H26.7264V23.3933H25.5373Z" fill="#B62C26"/>
<path d="M12.9062 2.79478C12.9062 2.43886 12.9062 2.11125 12.9062 1.78769C12.9062 1.46412 13.0922 1.2538 13.3794 1.26189C13.6666 1.26998 13.8243 1.46008 13.8243 1.78364C13.8243 2.51571 13.8243 3.24373 13.8243 3.97175C13.8329 4.04162 13.8255 4.11254 13.8024 4.17908C13.7794 4.24561 13.7414 4.30598 13.6915 4.35557C13.6415 4.40516 13.5808 4.44264 13.5141 4.46515C13.4474 4.48766 13.3764 4.49458 13.3066 4.4854C12.5786 4.4854 11.8465 4.4854 11.1185 4.4854C10.7909 4.4854 10.6048 4.31553 10.6048 4.03242C10.6013 3.96723 10.6122 3.90208 10.6367 3.84157C10.6612 3.78106 10.6987 3.72667 10.7466 3.68228C10.7944 3.63789 10.8515 3.60458 10.9137 3.58471C10.9758 3.56484 11.0416 3.55889 11.1064 3.56729H12.2469L12.2955 3.47831C11.891 3.12644 11.4866 2.73816 11.0821 2.43077C9.88467 1.59639 8.43945 1.19326 6.98303 1.28739C5.52661 1.38152 4.14529 1.96734 3.06524 2.94892C1.98519 3.93051 1.2704 5.2497 1.03789 6.69052C0.805383 8.13134 1.06894 9.60841 1.78541 10.8799C2.50188 12.1514 3.6288 13.142 4.98168 13.6894C6.33456 14.2369 7.83323 14.3089 9.23233 13.8935C10.6314 13.4781 11.8481 12.6 12.683 11.403C13.518 10.206 13.9218 8.76093 13.8284 7.30446C13.796 6.85552 13.6827 6.41466 13.6099 5.96976C13.5877 5.90062 13.5829 5.82705 13.5959 5.7556C13.6089 5.68415 13.6394 5.61703 13.6846 5.5602C13.7299 5.50336 13.7884 5.45859 13.8551 5.42984C13.9218 5.4011 13.9946 5.38927 14.067 5.39543C14.338 5.39543 14.4714 5.56935 14.5119 5.79989C14.9509 7.41156 14.8224 9.1252 14.1479 10.6534C13.6332 11.8405 12.8151 12.8712 11.7757 13.6418C10.7363 14.4124 9.51238 14.8958 8.22693 15.0433C6.94149 15.1908 5.63986 14.9973 4.45293 14.4822C3.26601 13.9671 2.23562 13.1485 1.4654 12.1089C0.695188 11.0692 0.212299 9.84506 0.0652732 8.55955C-0.0817529 7.27405 0.112278 5.9725 0.627856 4.78577C1.14343 3.59905 1.96238 2.56898 3.00234 1.79917C4.04231 1.02936 5.26663 0.546924 6.5522 0.400396C7.69073 0.2639 8.84539 0.398274 9.92215 0.792571C10.9989 1.18687 11.9673 1.82994 12.7485 2.6694C12.7841 2.70109 12.8179 2.73485 12.8496 2.77051L12.9062 2.79478Z" fill="#B62C26"/>
<path d="M2.76648 22.4553C3.69673 22.4553 4.59462 22.4553 5.49655 22.4553C5.57115 22.4473 5.64092 22.4145 5.69473 22.3623C6.13078 21.979 6.66192 21.72 7.23246 21.6126C7.80301 21.5052 8.39194 21.5533 8.9375 21.7519C9.48307 21.9504 9.96515 22.2921 10.3332 22.741C10.7013 23.19 10.9418 23.7297 11.0295 24.3036H17.7071C17.7961 24.3036 17.881 24.3036 17.9659 24.3036C18.0872 24.3036 18.2034 24.3518 18.2891 24.4375C18.3748 24.5232 18.423 24.6395 18.423 24.7607C18.423 24.8819 18.3748 24.9981 18.2891 25.0839C18.2034 25.1696 18.0872 25.2177 17.9659 25.2177C17.881 25.2177 17.792 25.2177 17.7071 25.2177H11.0336C10.9633 25.6653 10.8008 26.0934 10.5564 26.475C10.3121 26.8565 9.9911 27.1831 9.61391 27.4341C9.03022 27.8327 8.32898 28.0222 7.624 27.9721C6.14369 27.8831 4.9829 26.8234 4.63911 25.2177H2.4146C2.01015 25.2177 1.84837 25.0559 1.84837 24.6676C1.84837 21.4994 1.84837 18.3325 1.84837 15.167C1.84837 14.8232 2.01419 14.625 2.29731 14.6169C2.58043 14.6088 2.76648 14.8191 2.76648 15.1791C2.76648 17.4845 2.76648 19.7859 2.76648 22.0872V22.4553ZM5.53295 24.7526C5.53055 25.2089 5.66361 25.6556 5.91529 26.0363C6.16697 26.4169 6.52594 26.7143 6.94675 26.8907C7.36755 27.0672 7.83126 27.1148 8.27915 27.0276C8.72704 26.9403 9.13896 26.7221 9.46275 26.4006C9.78654 26.0791 10.0076 25.6687 10.098 25.2214C10.1884 24.7742 10.1441 24.3101 9.97055 23.8881C9.79705 23.4661 9.5022 23.105 9.12335 22.8507C8.74451 22.5963 8.2987 22.4601 7.84239 22.4593C7.54003 22.4577 7.24032 22.5158 6.96046 22.6303C6.6806 22.7448 6.42609 22.9134 6.21154 23.1265C5.99698 23.3395 5.8266 23.5928 5.71015 23.8719C5.5937 24.1509 5.53348 24.4502 5.53295 24.7526V24.7526ZM4.88987 23.3977H2.79074V24.2794H4.62698L4.88987 23.3977Z" fill="#B62C26"/>
<path d="M22.4473 13.2418C22.9852 13.2418 23.5232 13.2418 24.0651 13.2418C24.1929 13.2268 24.3217 13.26 24.4263 13.3347C24.531 13.4095 24.6041 13.5205 24.6314 13.6463C24.9752 14.8111 25.3311 15.9759 25.6789 17.1408C25.8083 17.5816 25.6142 17.8324 25.1572 17.8364C24.4939 17.8364 23.8306 17.8364 23.1713 17.8364C22.9749 17.8336 22.7875 17.7537 22.6495 17.614C22.4598 17.3487 22.1988 17.1425 21.8967 17.0194C21.5946 16.8963 21.2639 16.8613 20.9427 16.9183C20.4412 16.9749 20.2996 16.7889 20.2996 16.2793C20.2996 15.4542 20.2996 14.6291 20.2996 13.804C20.2996 13.3995 20.4614 13.2418 20.8538 13.2418H22.4473ZM24.6152 16.9264C24.6184 16.8833 24.6184 16.8401 24.6152 16.797C24.3685 15.9881 24.1218 15.1428 23.8629 14.3217C23.8373 14.2789 23.802 14.2427 23.7598 14.2161C23.7177 14.1894 23.6699 14.1729 23.6202 14.168C22.9488 14.168 22.2774 14.168 21.5979 14.168H21.2178V16.0609C22.0954 15.7777 22.6536 16.2348 23.147 16.8455L23.1672 16.8657C23.2242 16.8974 23.2856 16.9205 23.3492 16.9345L24.6152 16.9264Z" fill="#B62C26"/>
<path d="M6.9162 5.8605V4.19011C6.9162 3.78295 7.07393 3.57668 7.3894 3.57129C7.6887 3.57129 7.83836 3.76138 7.83836 4.16988C7.83836 5.19719 7.83836 6.22451 7.83836 7.25183C7.83298 7.33613 7.84653 7.42057 7.87803 7.49895C7.90952 7.57733 7.95815 7.64768 8.02035 7.70483C8.52188 8.19287 9.01802 8.68765 9.50876 9.18918C9.56691 9.2326 9.61376 9.28936 9.6454 9.35467C9.67703 9.41999 9.69251 9.49196 9.69052 9.5645C9.68854 9.63705 9.66916 9.70805 9.634 9.77155C9.59885 9.83504 9.54896 9.88915 9.48853 9.92934C9.40127 10.0003 9.28962 10.0341 9.17765 10.0235C9.06567 10.0129 8.96235 9.95878 8.88994 9.87271C8.28326 9.27411 7.67657 8.65934 7.08202 8.05671C6.98378 7.93061 6.92977 7.77569 6.92833 7.61585C6.90406 7.03343 6.9162 6.44696 6.9162 5.8605Z" fill="#B62C26"/>
<path d="M21.1894 19.689C21.0357 19.689 20.8821 19.689 20.7324 19.689C20.6724 19.6885 20.6131 19.6759 20.558 19.6521C20.503 19.6283 20.4532 19.5937 20.4117 19.5504C20.3703 19.507 20.3379 19.4558 20.3166 19.3997C20.2952 19.3436 20.2853 19.2838 20.2875 19.2238C20.2864 19.1659 20.2968 19.1084 20.3179 19.0545C20.3391 19.0006 20.3707 18.9514 20.4109 18.9097C20.4511 18.868 20.4991 18.8347 20.5522 18.8115C20.6053 18.7884 20.6624 18.776 20.7203 18.7749C21.0438 18.7749 21.3674 18.7749 21.691 18.7749C21.8007 18.7896 21.9014 18.8436 21.9743 18.9269C22.0472 19.0102 22.0873 19.1172 22.0873 19.2279C22.0873 19.3386 22.0472 19.4455 21.9743 19.5289C21.9014 19.6122 21.8007 19.6662 21.691 19.6809C21.5199 19.691 21.3484 19.691 21.1773 19.6809L21.1894 19.689Z" fill="#B62C26"/>
<path d="M23.964 24.7523C23.9742 24.94 23.946 25.1278 23.8812 25.3042C23.8163 25.4806 23.7162 25.6419 23.587 25.7784C23.4577 25.9148 23.302 26.0235 23.1294 26.0978C22.9567 26.172 22.7707 26.2103 22.5828 26.2103C22.3948 26.2103 22.2089 26.172 22.0362 26.0978C21.8636 26.0235 21.7079 25.9148 21.5786 25.7784C21.4494 25.6419 21.3493 25.4806 21.2844 25.3042C21.2196 25.1278 21.1914 24.94 21.2016 24.7523C21.2207 24.3989 21.3746 24.0663 21.6315 23.8229C21.8884 23.5795 22.2289 23.4438 22.5828 23.4438C22.9367 23.4438 23.2772 23.5795 23.5341 23.8229C23.791 24.0663 23.9449 24.3989 23.964 24.7523V24.7523ZM22.5808 25.2215C22.701 25.2205 22.816 25.1725 22.9014 25.0879C22.9868 25.0033 23.0357 24.8887 23.0378 24.7685C23.0373 24.7072 23.0245 24.6467 23 24.5906C22.9755 24.5345 22.9398 24.4839 22.8952 24.4419C22.8506 24.4 22.7979 24.3675 22.7404 24.3465C22.6829 24.3254 22.6217 24.3163 22.5606 24.3195C22.4462 24.3303 22.34 24.3833 22.2627 24.4682C22.1854 24.5531 22.1426 24.6638 22.1426 24.7786C22.1426 24.8934 22.1854 25.0041 22.2627 25.089C22.34 25.1739 22.4462 25.2269 22.5606 25.2377L22.5808 25.2215Z" fill="#B62C26"/>
<path d="M7.83431 23.3814C8.10874 23.3806 8.37721 23.4614 8.60555 23.6137C8.83389 23.7659 9.0118 23.9826 9.11662 24.2362C9.22145 24.4899 9.24845 24.7689 9.19421 25.038C9.13997 25.307 9.00693 25.5538 8.81202 25.747C8.61711 25.9402 8.36914 26.0711 8.09965 26.1229C7.83015 26.1748 7.55134 26.1453 7.29865 26.0382C7.04595 25.9312 6.83081 25.7514 6.68061 25.5217C6.5304 25.292 6.4519 25.0228 6.45511 24.7484C6.4604 24.3854 6.60779 24.0389 6.86564 23.7833C7.12349 23.5278 7.47126 23.3834 7.83431 23.3814V23.3814ZM8.29539 24.7525C8.29373 24.661 8.26488 24.572 8.2125 24.497C8.16012 24.4219 8.08659 24.3641 8.00127 24.331C7.91595 24.2979 7.8227 24.2909 7.7334 24.3109C7.6441 24.331 7.56279 24.3772 7.49981 24.4436C7.43684 24.51 7.39505 24.5936 7.37978 24.6839C7.3645 24.7741 7.37642 24.8668 7.41403 24.9503C7.45163 25.0337 7.51321 25.1041 7.59094 25.1524C7.66867 25.2007 7.75902 25.2248 7.85049 25.2216C7.97101 25.2164 8.08478 25.1645 8.16779 25.077C8.2508 24.9895 8.29656 24.8731 8.29539 24.7525V24.7525Z" fill="#B62C26"/>
<path d="M22.5808 25.2215C22.4891 25.2223 22.3992 25.1957 22.3227 25.1451C22.2462 25.0946 22.1865 25.0224 22.1512 24.9377C22.1159 24.8531 22.1067 24.7598 22.1247 24.6699C22.1427 24.58 22.1871 24.4975 22.2522 24.4329C22.3174 24.3684 22.4003 24.3247 22.4903 24.3075C22.5804 24.2903 22.6736 24.3003 22.7579 24.3364C22.8423 24.3724 22.9139 24.4327 22.9638 24.5097C23.0137 24.5867 23.0394 24.6768 23.0378 24.7685C23.0357 24.8886 22.9868 25.0033 22.9014 25.0879C22.816 25.1725 22.701 25.2204 22.5808 25.2215Z" fill="white" stroke="white" stroke-width="0.6" stroke-miterlimit="10"/>
<path d="M8.2954 24.7528C8.29656 24.8734 8.25081 24.9898 8.1678 25.0773C8.08479 25.1648 7.97102 25.2167 7.8505 25.2219C7.78844 25.2241 7.72659 25.2137 7.66871 25.1912C7.61083 25.1687 7.55815 25.1347 7.51387 25.0911C7.46958 25.0476 7.43463 24.9955 7.41115 24.938C7.38766 24.8806 7.37614 24.8189 7.37728 24.7568C7.38802 24.6425 7.44104 24.5363 7.52594 24.459C7.61084 24.3817 7.72152 24.3389 7.83634 24.3389C7.95116 24.3389 8.06184 24.3817 8.14674 24.459C8.23164 24.5363 8.28466 24.6425 8.2954 24.7568V24.7528Z" fill="white"/>
</g>
<defs>
<clipPath id="clip0_5394_15651">
<rect width="27.6527" height="27.6365" fill="white" transform="translate(0 0.347656)"/>
</clipPath>
</defs>
</svg>
