<svg width="29" height="26" viewBox="0 0 29 26" fill="none" xmlns="http://www.w3.org/2000/svg">
<g clip-path="url(#clip0_5394_15701)">
<path d="M26.3608 14.0054C25.9834 13.1676 25.5607 12.3448 24.7455 11.8354C24.7026 11.8089 24.6622 11.7786 24.6248 11.7448C24.5618 11.7189 24.5078 11.675 24.4695 11.6186C24.4313 11.5623 24.4105 11.4959 24.4097 11.4278C24.4097 11.4278 24.4097 11.4278 24.4097 11.4089C24.3975 11.3824 24.3886 11.3545 24.3832 11.3259C24.3818 11.3197 24.3818 11.3132 24.3832 11.307C24.3832 11.307 24.3832 11.307 24.3832 11.2881C24.3644 11.2586 24.3492 11.227 24.3379 11.1938C24.3172 11.1453 24.302 11.0947 24.2927 11.0428C24.2831 10.9689 24.2831 10.8941 24.2927 10.8202C24.2937 10.7602 24.3107 10.7016 24.3417 10.6504L24.3946 10.5824C24.4125 10.5656 24.4328 10.5516 24.4549 10.5409V10.5183H24.4776H24.538C24.5671 10.506 24.5974 10.4972 24.6285 10.4919V10.4919C24.6486 10.4897 24.6689 10.4897 24.6889 10.4919H24.7757C24.8257 10.4787 24.8784 10.4798 24.9278 10.4951C24.9772 10.5105 25.0213 10.5394 25.055 10.5787H27.2061L27.108 10.4805C27.108 10.4805 27.0891 10.4503 27.0778 10.4353C26.7864 10.474 26.4919 10.4841 26.1985 10.4654C26.0438 10.4654 25.8928 10.4654 25.7117 10.4654C25.7834 10.1258 25.84 9.75594 25.4097 9.66537C25.0772 9.63308 24.7422 9.63308 24.4097 9.66537C24.3115 8.88417 24.3908 8.7936 25.0852 8.7936C25.6815 8.7936 26.2777 8.7936 26.874 8.7936C27.2061 8.7936 27.3646 8.92568 27.3609 9.26534C27.3609 9.54083 27.3609 9.7484 27.3609 9.91445C27.4172 9.91874 27.4717 9.93689 27.5194 9.96728V9.42761C27.5194 8.74831 27.4099 8.63509 26.7155 8.63509C26.3381 8.63509 25.9607 8.65773 25.5833 8.63509C25.5061 8.62358 25.4323 8.59533 25.3671 8.5523C25.3019 8.50928 25.2469 8.45252 25.206 8.38601C25.0981 8.1289 24.8993 7.92062 24.6474 7.80106C24.4738 7.71426 24.3115 7.60104 24.1228 7.48783C24.1832 7.46141 24.2059 7.44253 24.2247 7.44631C24.7704 7.51682 25.325 7.44512 25.8348 7.23816C26.3446 7.0312 26.7923 6.69599 27.1344 6.26507C27.1797 6.21224 27.259 6.19715 27.3156 6.15564C27.4788 6.06361 27.6254 5.94498 27.7496 5.80465C27.9458 5.49142 28.0892 5.148 28.259 4.81967C28.3899 4.61264 28.4399 4.36467 28.3995 4.12312C28.3592 3.88156 28.2312 3.66334 28.0402 3.51012C27.967 3.42091 27.9282 3.30846 27.9307 3.19311C27.9505 2.9284 27.8711 2.66579 27.7078 2.45648C27.5446 2.24717 27.3092 2.10616 27.0476 2.06094C26.9142 2.0081 26.7876 1.93969 26.6702 1.85714C26.3834 1.69109 26.1004 1.5175 25.8098 1.35522C25.689 1.29106 25.5267 1.29106 25.4324 1.20803C25.2295 1.01711 24.9633 0.907707 24.6848 0.900745C24.4063 0.893782 24.135 0.989746 23.9228 1.17029C23.6787 1.0016 23.3794 0.932657 23.0861 0.977563C22.7928 1.02247 22.5278 1.17783 22.3453 1.41183C22.0774 1.70619 21.7981 1.92885 21.8962 2.37795C21.8962 2.43833 21.7981 2.51758 21.7717 2.59306C21.6118 2.89006 21.507 3.21354 21.4622 3.54786C21.5236 4.00434 21.5501 4.46483 21.5415 4.92534C21.4053 4.73859 21.2793 4.54457 21.1641 4.34415C20.6659 3.38558 19.8546 2.9478 18.8054 2.76288C15.513 2.21657 12.1497 2.26001 8.87247 2.89119C8.47903 2.95035 8.10363 3.09615 7.77339 3.31805C7.44316 3.53995 7.16632 3.83242 6.96287 4.17433C5.9306 5.77865 5.03673 7.4679 4.29094 9.22382C4.0796 9.71442 4.05318 9.73329 3.47954 9.60121C3.47954 9.46912 3.47954 9.32949 3.47954 9.18985C3.48251 9.11591 3.46968 9.04218 3.44192 8.97359C3.41415 8.90499 3.37209 8.84309 3.31852 8.79203C3.26496 8.74097 3.20113 8.70189 3.13128 8.67743C3.06143 8.65298 2.98718 8.64369 2.91346 8.65019C2.17754 8.65019 1.44163 8.65019 0.701944 8.65019C0.631308 8.6448 0.56033 8.65443 0.493681 8.67844C0.427032 8.70245 0.366223 8.74029 0.315247 8.78948C0.264272 8.83868 0.224288 8.89811 0.197923 8.96386C0.171558 9.02962 0.15941 9.1002 0.162278 9.17099C0.147181 9.46264 0.147181 9.75488 0.162278 10.0465C0.153033 10.1267 0.162161 10.208 0.188974 10.2842C0.215787 10.3603 0.259583 10.4294 0.317038 10.4861C0.374494 10.5428 0.444101 10.5858 0.520597 10.6116C0.597092 10.6374 0.67847 10.6455 0.758556 10.6353C1.16614 10.6353 1.57372 10.6353 1.97753 10.6353H3.7324C3.65692 10.956 3.58899 11.2919 3.49841 11.6203C3.46823 11.6984 3.41052 11.7628 3.33614 11.8014C2.80134 12.1304 2.36471 12.597 2.07188 13.1525C1.39592 14.3128 0.956003 15.5954 0.777421 16.9264C0.676766 17.4746 0.712596 18.0392 0.881743 18.5704C1.05089 19.1015 1.34816 19.5828 1.74732 19.9719C1.8498 20.0924 1.90835 20.2441 1.91337 20.4022C1.91337 21.5343 1.91337 22.6665 1.91337 23.7987C1.89838 24.073 1.93984 24.3475 2.0352 24.6051C2.13056 24.8627 2.27777 25.0981 2.46774 25.2965C2.65771 25.495 2.88639 25.6524 3.13962 25.7589C3.39286 25.8654 3.66525 25.9188 3.93996 25.9158C4.66455 25.9435 5.38915 25.9435 6.11374 25.9158C6.38158 25.915 6.64653 25.8603 6.89286 25.7551C7.13918 25.65 7.36187 25.4964 7.54772 25.3035C7.73356 25.1106 7.87877 24.8823 7.97473 24.6323C8.0707 24.3822 8.11546 24.1154 8.10636 23.8477C8.06862 23.0212 8.10636 22.1948 8.10636 21.3683C8.10636 20.8626 8.10636 20.8626 8.59319 20.8626H19.9149V23.7911C19.8995 24.0718 19.9428 24.3526 20.0422 24.6156C20.1415 24.8785 20.2946 25.1179 20.4918 25.3182C20.689 25.5186 20.9258 25.6756 21.1871 25.7791C21.4485 25.8827 21.7286 25.9305 22.0095 25.9196C22.685 25.9196 23.3567 25.9196 24.0323 25.9196C24.3066 25.928 24.5798 25.8801 24.8349 25.7789C25.0901 25.6778 25.3218 25.5255 25.5159 25.3314C25.71 25.1373 25.8623 24.9056 25.9635 24.6504C26.0646 24.3952 26.1125 24.1221 26.1041 23.8477C26.1041 22.7155 26.1041 21.5834 26.1041 20.4512C26.1095 20.2703 26.1776 20.0969 26.2966 19.9606C26.6738 19.5794 26.9571 19.1156 27.1241 18.6061C27.2911 18.0965 27.3373 17.555 27.259 17.0245C27.1179 15.9776 26.8148 14.9591 26.3608 14.0054ZM25.2965 9.78236C25.3984 9.78236 25.5833 9.98615 25.5682 10.0579C25.548 10.128 25.511 10.1922 25.4603 10.2448C25.4097 10.2974 25.347 10.3369 25.2777 10.3598C24.9673 10.4202 24.6483 10.4202 24.3379 10.3598C24.1606 10.3107 24.0398 10.0465 23.8964 9.88048L23.9794 9.77482C24.4172 9.77482 24.8588 9.75595 25.2965 9.78614V9.78236ZM24.1115 7.65388L24.6021 7.93314C24.3606 8.47281 24.1228 8.99739 23.8738 9.54838C23.2775 8.7936 23.9606 8.29921 24.1115 7.65765V7.65388ZM23.9719 7.61236L23.4737 8.72189C23.319 8.39356 23.1907 8.12183 23.036 7.78596C23.4247 7.94446 23.5417 7.25762 23.9719 7.61614V7.61236ZM22.8888 7.45386C22.8418 7.26624 22.8178 7.07362 22.8171 6.88022L23.6209 7.25761C23.4898 7.3919 23.3398 7.50632 23.1756 7.59726C23.1199 7.59993 23.0644 7.58854 23.0143 7.56414C22.9642 7.53974 22.921 7.50311 22.8888 7.45763V7.45386ZM24.8776 7.23119C24.439 7.27247 23.9967 7.21515 23.5831 7.06342C23.1695 6.9117 22.795 6.66941 22.4872 6.35429C22.1793 6.03918 21.9458 5.6592 21.8037 5.24218C21.6616 4.82517 21.6146 4.38166 21.666 3.94412C21.6647 3.83295 21.6559 3.72199 21.6396 3.61201L22.1755 3.66485C22.1755 3.66485 22.1944 3.66485 22.2019 3.64221C22.3529 3.12896 22.5793 2.72514 23.2209 2.97422C23.2497 2.98824 23.2813 2.99553 23.3133 2.99553C23.3454 2.99553 23.377 2.98824 23.4058 2.97422C23.8247 2.61947 24.2625 2.91006 24.6889 2.92893C24.7827 2.94865 24.8706 2.99001 24.9456 3.0497C25.0097 3.09122 25.055 3.18179 25.1192 3.19311C25.6777 3.3101 26.0438 3.74033 26.4966 4.03092C26.5694 4.06935 26.6316 4.12507 26.6778 4.1932C26.8061 4.41586 26.9155 4.64984 27.0552 4.94798C26.9835 5.11781 26.8816 5.37443 26.7646 5.6537L27.142 5.86127C26.9035 6.25602 26.5729 6.58715 26.1786 6.82637C25.7843 7.06559 25.3379 7.20578 24.8776 7.23497V7.23119ZM21.9151 3.45728C21.9868 3.22707 22.0585 2.99687 22.134 2.74779C22.3755 2.91762 22.3567 3.0346 22.0547 3.47992L21.9151 3.45728ZM27.425 5.98203L27.2854 5.91032C27.3533 5.66124 27.4137 5.40839 27.4929 5.15554C27.4929 5.10271 27.5911 5.07252 27.6439 5.02723C27.6854 5.08384 27.7722 5.15932 27.7571 5.19328C27.659 5.465 27.5382 5.72163 27.425 5.98203ZM22.2434 1.61939C22.2925 1.57787 22.3491 1.54768 22.3944 1.5024C22.9378 0.966501 23.2284 0.936312 23.8549 1.35144C24.4625 0.875929 24.8021 0.887249 25.3645 1.39673C25.4303 1.44584 25.5064 1.47939 25.5871 1.49485C25.6173 1.49485 25.6626 1.47598 25.6966 1.49485C25.8702 1.53637 26.1419 1.53259 26.1909 1.63449C26.4891 2.2685 27.3684 2.06849 27.6401 2.67609C27.7155 2.94133 27.7549 3.21551 27.7571 3.49125C28.2062 3.80449 28.3232 4.08753 28.1572 4.55927C28.0817 4.76306 27.9873 4.9593 27.7269 4.88005C27.2174 4.72532 26.8967 4.67626 26.8401 4.09131L25.806 3.24218C25.6453 3.24843 25.4857 3.214 25.3418 3.14209C25.198 3.07018 25.0747 2.96312 24.9833 2.83082C24.9257 2.78556 24.8562 2.75801 24.7833 2.75156C24.5078 2.69118 24.2323 2.63835 23.8662 2.56664C23.4888 3.01574 22.9378 2.83081 22.4359 2.67985C22.3213 2.65807 22.2159 2.60206 22.1337 2.5192C22.0515 2.43635 21.9964 2.33053 21.9755 2.21571C21.9547 2.10088 21.9692 1.98244 22.017 1.87599C22.0648 1.76953 22.1438 1.68007 22.2434 1.61939ZM22.0321 2.53268C21.8736 2.95913 21.749 3.28746 21.6283 3.61579C21.4811 3.35539 21.6547 2.84591 22.0321 2.53268ZM1.89827 10.4239C1.45295 10.4239 1.01518 10.4466 0.581182 10.4239C0.464191 10.4239 0.354748 10.2315 0.245304 10.1258C0.245304 10.1258 0.245304 10.0767 0.245304 10.0503C0.0754783 8.91813 0.196239 8.77095 1.33219 8.76718H2.50965C3.21537 8.76718 3.29085 8.8502 3.20782 9.62763H2.50965C1.92469 9.61631 1.76619 9.8201 1.90959 10.4239H1.89827ZM3.23046 10.3862C2.94365 10.3522 2.64173 10.4088 2.35869 10.3673C2.22283 10.3447 2.11339 10.1824 1.9813 10.0843C2.10207 9.9786 2.21528 9.79368 2.35869 9.78614C2.87572 9.75217 3.39275 9.78614 3.91732 9.78614C3.91732 10.2767 3.67956 10.439 3.24179 10.3862H3.23046ZM2.03036 24.0779C1.98508 22.8099 2.03036 21.5419 2.03036 20.2361C2.27717 20.3465 2.51667 20.4725 2.7474 20.6135C2.79175 20.66 2.82604 20.7152 2.84811 20.7756C2.87019 20.836 2.87959 20.9003 2.87572 20.9645C2.87572 21.8777 2.89836 22.791 2.87572 23.7081C2.84571 24.0672 2.89582 24.4285 3.02243 24.766C3.14904 25.1034 3.349 25.4085 3.60786 25.6592C2.70589 25.4932 2.06055 24.878 2.03036 24.0779ZM3.60408 25.3913C3.36407 25.0451 3.18063 24.6629 3.06064 24.2591C3.01997 24.0989 3.00973 23.9325 3.03045 23.7685C3.03045 22.7646 3.03045 21.7608 3.03045 20.6965L4.74381 20.972V21.8476L3.72862 20.9116L3.51729 21.1079C3.51729 21.3305 4.52869 22.1268 4.75136 22.0891V22.9609L3.74749 22.0363L3.46445 22.2627C3.90977 22.5835 4.16262 23.0854 4.74758 23.2552V24.0704L3.72862 23.1269L3.51729 23.3232C3.51729 23.5345 4.52492 24.3308 4.76645 24.3044C4.76645 24.6101 4.76645 24.912 4.76645 25.2139C4.76645 25.4554 4.8457 25.546 5.1061 25.4667V24.3685C5.72125 24.2402 5.95523 23.6854 6.46848 23.3684L6.15525 23.1382L5.14007 24.0779V23.2552C5.72502 23.1382 5.95523 22.5797 6.43075 22.2778L6.16657 22.0287L5.15139 22.9571V22.1457C5.7288 22.0249 5.96278 21.4702 6.45339 21.1456L6.17789 20.9041L5.15139 21.8551V20.9494L6.87229 20.7493V22.6363C6.87229 23.1194 6.87229 23.6024 6.87229 24.0855C6.87125 24.3342 6.82103 24.5803 6.72453 24.8096C6.62802 25.0389 6.48714 25.2468 6.30998 25.4214C5.83824 25.8479 4.01167 25.8743 3.60408 25.3913ZM7.87238 23.9421C7.86591 24.3638 7.70408 24.7684 7.41788 25.0783C7.13168 25.3882 6.74123 25.5816 6.3213 25.6215C6.93645 25.0365 7.04967 24.3157 7.0308 23.542C7.01193 22.7684 7.0308 21.991 7.0308 21.2173V20.8399H7.87993V21.289C7.87615 22.1646 7.88747 23.0628 7.87238 23.9421V23.9421ZM20.0432 24.1194C19.9829 23.0363 20.0432 21.9457 20.0432 20.8324H20.8811V22.1683C20.8811 22.7156 20.8811 23.2628 20.8811 23.8062C20.8636 24.1428 20.9163 24.4793 21.0358 24.7944C21.1554 25.1095 21.3391 25.3963 21.5755 25.6366C21.1829 25.603 20.8145 25.4328 20.5345 25.1556C20.2545 24.8783 20.0807 24.5117 20.0432 24.1194V24.1194ZM23.4398 25.7045C23.1341 25.7045 22.8284 25.7045 22.5227 25.7045C22.2213 25.7339 21.9194 25.6535 21.6726 25.4781C21.4257 25.3027 21.2505 25.044 21.1792 24.7497C21.0889 24.4858 21.0393 24.2096 21.032 23.9307C21.0131 22.976 21.032 22.0212 21.032 21.0701C21.0417 20.9645 21.0593 20.8598 21.0848 20.7569L22.7567 20.9456V21.84L21.7377 20.9079L21.5264 21.1041C21.5264 21.3079 22.5303 22.108 22.7567 22.0966V22.9458C22.4435 22.6589 22.1755 22.4287 21.9226 22.191C21.7377 22.0061 21.6283 22.0589 21.5264 22.2627C22.0774 22.9269 22.4812 23.2439 22.7491 23.2175V24.0591L22.2359 23.5949L21.7453 23.1345L21.5302 23.3269C21.5302 23.5307 22.5227 24.3421 22.7718 24.3459C22.7718 24.6365 22.7718 24.9308 22.7718 25.2214C22.7718 25.512 22.851 25.5498 23.1152 25.4705V24.3572C23.4297 24.3421 23.865 24.0012 24.421 23.3345L24.1832 23.1345C23.8474 23.4401 23.5266 23.7383 23.1643 24.0742V23.2628C23.2857 23.2338 23.4017 23.1854 23.5077 23.1194C23.8172 22.8552 24.1077 22.5721 24.4549 22.2438L24.2096 21.9985L23.1643 22.9458V22.1231C23.7379 22.0476 23.9455 21.4664 24.421 21.1796L24.1832 20.8928L23.1643 21.8476V20.9682L24.8889 20.6814V21.9532C24.8889 22.6023 24.9267 23.2552 24.8889 23.9006C24.8537 24.3013 24.7503 24.6932 24.5833 25.0592C24.4903 25.2768 24.3284 25.4578 24.1225 25.5745C23.9165 25.6911 23.678 25.7367 23.4435 25.7045H23.4398ZM25.8626 24.0779C25.84 24.8516 25.1946 25.4818 24.2851 25.6517C25.1116 24.8969 25.0399 23.9647 25.0399 23.0514C25.0399 22.391 25.0399 21.7306 25.0399 21.0701C25.0399 20.772 25.0776 20.5644 25.4173 20.4776C25.5883 20.4097 25.7515 20.3237 25.9041 20.221C25.8739 21.5532 25.8966 22.8099 25.8664 24.0779H25.8626ZM23.8662 20.6437C20.5527 20.6437 17.2367 20.6437 13.9182 20.6437C10.6613 20.6437 7.40441 20.5984 4.1513 20.6437C3.67999 20.6688 3.20901 20.5886 2.77264 20.4087C2.33628 20.2288 1.94552 19.9539 1.62883 19.604C1.31213 19.254 1.07747 18.8378 0.941937 18.3857C0.806404 17.9336 0.77341 17.457 0.845355 16.9905C1.00428 15.5165 1.52264 14.1039 2.35492 12.877C2.67352 12.5039 3.0288 12.1638 3.41539 11.8618C3.47577 11.8052 3.56635 11.7486 3.58144 11.6806C3.93241 9.86916 4.774 8.25392 5.61181 6.64246C6.09109 5.72163 6.6685 4.84986 7.21572 3.96299C7.35364 3.72813 7.54135 3.52633 7.76564 3.3718C7.98993 3.21727 8.24535 3.11377 8.51394 3.06857C11.9803 2.32491 15.5606 2.28386 19.0432 2.94781C19.3938 3.00404 19.7285 3.13402 20.0251 3.32919C20.3218 3.52435 20.5736 3.78026 20.7641 4.07998C22.1799 6.19515 23.3129 8.4865 24.1342 10.8957C24.2429 11.4098 24.5271 11.8701 24.938 12.1977C25.7796 12.8128 26.1758 13.8016 26.4966 14.7715C26.7485 15.5168 26.9317 16.2836 27.0438 17.0622C27.1169 17.5143 27.0886 17.977 26.9609 18.4168C26.8333 18.8566 26.6095 19.2625 26.3058 19.6052C26.0021 19.948 25.626 20.2189 25.2047 20.3985C24.7835 20.5781 24.3276 20.6618 23.87 20.6437H23.8662Z" stroke="#B62C26" stroke-width="0.4" stroke-miterlimit="10"/>
<path d="M15.1099 20.6397C11.853 20.6397 8.59615 20.5944 5.34304 20.6397C4.87173 20.6648 4.40074 20.5846 3.96438 20.4047C3.52801 20.2249 3.13726 19.9499 2.82056 19.6C2.50387 19.25 2.26921 18.8338 2.13368 18.3817C1.99814 17.9296 1.96514 17.453 2.03709 16.9865C2.19602 15.5125 2.71437 14.1 3.54665 12.873C3.86526 12.4999 4.22053 12.1598 4.60712 11.8578C4.6675 11.8012 4.75808 11.7446 4.77318 11.6766C5.12415 9.86517 5.96573 8.24995 6.80354 6.63849C7.28283 5.71765 7.86024 4.84588 8.40745 3.95901C8.54538 3.72414 8.73308 3.52235 8.95737 3.36782C9.18166 3.2133 9.43709 3.10979 9.70568 3.06459C13.1721 2.32094 16.7524 2.27987 20.2349 2.94382C20.5855 3.00005 20.9202 3.13004 21.2169 3.32521C21.5135 3.52038 21.7654 3.77627 21.9558 4.076C23.3717 6.19116 24.5046 8.48251 25.3259 10.8917C25.4346 11.4058 25.7188 11.8661 26.1297 12.1937C26.9713 12.8088 27.3676 13.7976 27.6884 14.7675C27.9403 15.5128 28.1234 16.2796 28.2356 17.0583C28.3079 17.5094 28.2792 17.971 28.1517 18.4097C28.0242 18.8485 27.801 19.2535 27.4982 19.5956C27.1954 19.9378 26.8205 20.2085 26.4005 20.3884C25.9805 20.5683 25.5259 20.6528 25.0693 20.6359C21.7558 20.6359 18.4398 20.6359 15.1212 20.6359L15.1099 20.6397ZM14.9175 16.5563H20.4123C20.5516 16.5696 20.6919 16.5696 20.8312 16.5563C22.186 16.2846 23.5446 16.0242 24.8995 15.7298C25.2611 15.6356 25.5708 15.4022 25.761 15.0805C25.9512 14.7588 26.0064 14.375 25.9146 14.0127C25.8345 13.6564 25.6161 13.3466 25.3075 13.1513C24.999 12.956 24.6255 12.8912 24.2692 12.9711L23.6012 13.1145C22.9106 13.2617 22.2237 13.5334 21.5331 13.5372C17.1214 13.5749 12.7097 13.5372 8.29424 13.5372C8.18037 13.5417 8.06638 13.5328 7.95459 13.5108C7.16961 13.3145 6.38841 13.107 5.60344 12.9145C5.49155 12.8899 5.37567 12.8899 5.26378 12.9145C4.93752 12.9726 4.64146 13.142 4.42595 13.3938C4.21045 13.6456 4.08879 13.9642 4.08167 14.2955C4.07456 14.6269 4.18242 14.9504 4.38692 15.2112C4.59142 15.472 4.87993 15.654 5.2034 15.7261C6.18462 15.9336 7.16961 16.1336 8.15083 16.3299C8.5678 16.4372 8.99336 16.508 9.42264 16.5412C11.2605 16.5714 13.0947 16.5563 14.9175 16.5563ZM15.1326 17.8583H10.4907C10.345 17.849 10.1989 17.8698 10.0616 17.9193C9.92428 17.9688 9.79861 18.0461 9.69242 18.1462C9.58623 18.2464 9.50179 18.3674 9.44434 18.5016C9.38689 18.6358 9.35767 18.7804 9.35848 18.9263C9.35776 19.0698 9.38637 19.2119 9.44256 19.344C9.49875 19.476 9.58133 19.5951 9.68524 19.6941C9.78914 19.793 9.91217 19.8697 10.0468 19.9194C10.1814 19.9691 10.3247 19.9907 10.468 19.983C13.5815 19.983 16.695 19.983 19.8084 19.983C20.0913 19.9579 20.3598 19.8473 20.5783 19.666C20.7401 19.5321 20.853 19.3484 20.8994 19.1436C20.9458 18.9388 20.9232 18.7244 20.8349 18.5339C20.7579 18.3296 20.6182 18.155 20.4358 18.035C20.2535 17.915 20.0378 17.8558 19.8198 17.8659L15.1326 17.8583ZM5.3204 11.0653H24.9447C24.8315 10.8464 24.6957 10.6162 24.5862 10.3784C24.5107 10.2162 24.4768 10.0388 24.4088 9.87272C23.6995 8.16031 22.8142 6.52624 21.7671 4.99683C21.5358 4.58787 21.2091 4.24083 20.8149 3.98523C20.4206 3.72963 19.9705 3.57304 19.5028 3.52877C19.4537 3.52877 19.4046 3.50991 19.3556 3.50237C16.4687 3.08647 13.5351 3.11447 10.6567 3.58539C10.2217 3.63024 9.80369 3.77829 9.43743 4.01721C9.07116 4.25614 8.76721 4.57905 8.55086 4.95909C8.40368 5.19685 8.23008 5.41573 8.07913 5.65349C7.10079 7.12463 6.30375 8.70857 5.70533 10.3709C5.60003 10.6122 5.47507 10.8444 5.33172 11.0653H5.3204ZM6.56956 19.5868C6.87525 19.5868 7.17716 19.5868 7.48285 19.5868C7.68303 19.5868 7.87501 19.5073 8.01656 19.3657C8.15811 19.2242 8.23763 19.0322 8.23763 18.832C8.23763 18.6318 8.15811 18.4398 8.01656 18.2983C7.87501 18.1567 7.68303 18.0772 7.48285 18.0772C6.87525 18.0583 6.26387 18.0583 5.65627 18.0772C5.5536 18.0678 5.4501 18.0807 5.35285 18.1149C5.2556 18.1492 5.16688 18.204 5.09273 18.2756C5.01858 18.3472 4.96075 18.434 4.92319 18.5301C4.88563 18.6261 4.86922 18.7291 4.87507 18.832C4.87173 18.9369 4.89032 19.0414 4.92965 19.1388C4.96897 19.2361 5.02818 19.3242 5.10347 19.3973C5.17877 19.4705 5.2685 19.5272 5.36694 19.5637C5.46537 19.6002 5.57034 19.6158 5.67514 19.6094C5.99592 19.5981 6.29029 19.5868 6.58088 19.5868H6.56956ZM23.3295 19.5868H24.1673C24.2738 19.5978 24.3814 19.5865 24.4833 19.5538C24.5852 19.5211 24.6793 19.4675 24.7594 19.3966C24.8396 19.3256 24.9042 19.2388 24.949 19.1416C24.9939 19.0445 25.0182 18.939 25.0202 18.832C25.0206 18.7272 24.9992 18.6235 24.9573 18.5275C24.9154 18.4315 24.854 18.3452 24.777 18.2742C24.6999 18.2033 24.609 18.1491 24.5099 18.1151C24.4107 18.0812 24.3057 18.0683 24.2013 18.0772C23.6201 18.0772 23.0351 18.0772 22.454 18.0772C22.3505 18.07 22.2466 18.0841 22.1489 18.1188C22.0511 18.1534 21.9615 18.2079 21.8857 18.2787C21.81 18.3495 21.7496 18.4352 21.7084 18.5304C21.6672 18.6256 21.6461 18.7283 21.6463 18.832C21.6463 18.9372 21.6673 19.0413 21.7081 19.1383C21.7489 19.2352 21.8087 19.323 21.884 19.3965C21.9592 19.47 22.0484 19.5277 22.1463 19.5662C22.2442 19.6047 22.3488 19.6233 22.454 19.6207C22.7596 19.5981 23.0502 19.5868 23.3408 19.5868H23.3295Z" stroke="#B62C26" stroke-width="0.4" stroke-miterlimit="10"/>
<path d="M23.8738 9.55199C23.2775 8.79721 23.9606 8.29906 24.1115 7.66504L24.6021 7.9443L23.8738 9.55199Z" fill="white" stroke="#B62C26" stroke-width="0.4" stroke-miterlimit="10"/>
<path d="M23.9719 7.61583L23.4737 8.72158L23.036 7.78565C23.4247 7.94415 23.5417 7.25731 23.9719 7.61583Z" fill="white" stroke="#B62C26" stroke-width="0.4" stroke-miterlimit="10"/>
<path d="M23.6209 7.2725C23.4898 7.40679 23.3398 7.52121 23.1756 7.61215C23.1185 7.61318 23.0621 7.59949 23.0119 7.57238C22.9617 7.54528 22.9192 7.50569 22.8888 7.45742C22.8418 7.2698 22.8178 7.07719 22.8171 6.88379L23.6209 7.2725Z" fill="white" stroke="#B62C26" stroke-width="0.4" stroke-miterlimit="10"/>
<path d="M27.2854 5.90995C27.3533 5.66087 27.4137 5.40802 27.4929 5.15517C27.4929 5.10233 27.5911 5.07214 27.6439 5.02686C27.6854 5.08346 27.7722 5.15894 27.7571 5.19291C27.659 5.46086 27.5382 5.71749 27.425 5.97789L27.2854 5.90995Z" fill="white" stroke="#B62C26" stroke-width="0.4" stroke-miterlimit="10"/>
<path d="M21.6547 3.61534C21.4962 3.35494 21.6547 2.86056 22.0585 2.53223C21.9 2.95868 21.7755 3.28701 21.6547 3.61534Z" fill="white" stroke="#B62C26" stroke-width="0.4" stroke-miterlimit="10"/>
<path d="M21.9151 3.45704L22.134 2.74756C22.3755 2.91738 22.3566 3.03437 22.0547 3.47969L21.9151 3.45704Z" fill="white" stroke="#B62C26" stroke-width="0.4" stroke-miterlimit="10"/>
<path d="M13.7295 16.5563C11.8991 16.5563 10.065 16.5563 8.23468 16.5563C7.8054 16.523 7.37985 16.4523 6.96288 16.3449C5.98166 16.1487 4.99666 15.9487 4.01545 15.7411C3.69197 15.669 3.40346 15.4871 3.19897 15.2263C2.99447 14.9655 2.8866 14.6419 2.89372 14.3106C2.90083 13.9793 3.02249 13.6606 3.238 13.4088C3.4535 13.1571 3.74956 12.9877 4.07583 12.9295C4.18772 12.905 4.3036 12.905 4.41548 12.9295C5.20046 13.122 5.98166 13.3296 6.76663 13.5258C6.87842 13.5479 6.99242 13.5567 7.10628 13.5522C11.5218 13.5522 15.9335 13.5711 20.3452 13.5522C21.0358 13.5522 21.7226 13.2767 22.4133 13.1296L23.0813 12.9861C23.4376 12.9062 23.811 12.971 24.1196 13.1663C24.4281 13.3617 24.6465 13.6715 24.7267 14.0278C24.8185 14.39 24.7632 14.7739 24.573 15.0956C24.3829 15.4173 24.0731 15.6507 23.7115 15.7449C22.3567 16.0392 20.9981 16.2996 19.6432 16.5714C19.5039 16.5846 19.3636 16.5846 19.2243 16.5714L13.7295 16.5563ZM19.6319 16.2355C20.8999 15.9789 22.1378 15.7298 23.3756 15.4807C23.6445 15.4195 23.8818 15.2623 24.0431 15.0386C24.2043 14.8148 24.2783 14.5399 24.2512 14.2655C24.1719 13.7183 23.6398 13.2239 23.153 13.3032C22.5413 13.403 21.9353 13.5352 21.3377 13.6994C20.7452 13.8617 19.6206 15.5637 19.6394 16.2355H19.6319ZM8.08372 16.2355C8.05132 16.0568 7.99944 15.8821 7.929 15.7147C7.59689 15.175 7.25724 14.6429 6.89117 14.1259C6.78358 13.9745 6.64529 13.8476 6.48532 13.7533C6.32535 13.659 6.1473 13.5995 5.96279 13.5787C5.55143 13.5183 5.14385 13.4126 4.73249 13.3258C4.59463 13.2888 4.45069 13.2801 4.30937 13.3002C4.16805 13.3204 4.03228 13.369 3.91025 13.443C3.78822 13.5171 3.68246 13.6151 3.59936 13.7312C3.51625 13.8472 3.45752 13.9789 3.42672 14.1183C3.39144 14.2579 3.38443 14.4031 3.40612 14.5454C3.42781 14.6878 3.47776 14.8243 3.55301 14.947C3.62827 15.0698 3.72732 15.1762 3.84432 15.2601C3.96133 15.344 4.09394 15.4036 4.23433 15.4354C5.49105 15.726 6.74776 15.9751 8.09127 16.2695L8.08372 16.2355ZM20.4055 14.3485V14.1636C20.1258 14.0917 19.8405 14.0438 19.5526 14.0202C17.9374 14.0202 16.3222 14.0202 14.7069 14.0202C12.5973 14.0202 10.4839 14.0202 8.37431 14.0202C8.06503 14.0558 7.7625 14.1358 7.47612 14.258C7.43083 14.258 7.41952 14.3938 7.3931 14.4655C7.45426 14.4975 7.52077 14.518 7.58934 14.5259C7.80445 14.5259 8.01579 14.4693 8.2309 14.4693H20.0583C20.1821 14.4518 20.3021 14.4135 20.4131 14.3561L20.4055 14.3485ZM8.15543 15.7034C8.12524 16.0543 8.28374 16.1411 8.60452 16.1411C12.0841 16.1411 15.5649 16.1411 19.0469 16.1411C19.3677 16.1411 19.5149 16.0468 19.496 15.7034H8.15543ZM7.80446 14.9939C8.11014 15.2505 19.6734 15.2165 19.881 14.9939H7.80446ZM7.21195 14.2391C7.37826 14.0957 7.57235 13.9882 7.78209 13.9233C7.99183 13.8584 8.21271 13.8374 8.43093 13.8617C12.0652 13.8617 15.6995 13.8617 19.3375 13.8617C19.7238 13.8839 20.1082 13.9305 20.4886 14.0013L20.866 13.7296H6.74021L7.21195 14.2391ZM20.0772 14.7599V14.6203H11.4651C10.3594 14.6203 9.25364 14.6203 8.14788 14.6203C7.97432 14.6302 7.80159 14.6517 7.63085 14.6844V14.7561L20.0772 14.7599ZM19.6734 15.3599H7.93654C8.29506 15.6052 19.4658 15.5751 19.6734 15.375V15.3599ZM19.4394 16.3713V16.3185H8.24223V16.3713H19.4394ZM4.34378 13.0692C4.06071 13.0602 3.78303 13.148 3.55656 13.3181C3.33009 13.4881 3.16834 13.7303 3.098 14.0046C3.02765 14.279 3.05292 14.5691 3.16962 14.8271C3.28632 15.0852 3.48749 15.2958 3.73995 15.4241C3.00026 14.7259 2.99272 13.556 4.33623 13.0843L4.34378 13.0692ZM24.0096 15.3562C24.2533 15.2177 24.4416 14.9994 24.5427 14.738C24.6438 14.4767 24.6514 14.1884 24.5644 13.9221C24.4789 13.6618 24.3104 13.4368 24.0848 13.2814C23.8592 13.1259 23.5889 13.0488 23.3152 13.0616C24.504 13.6956 24.7342 14.3825 24.0021 15.3713L24.0096 15.3562Z" stroke="#B62C26" stroke-width="0.4" stroke-miterlimit="10"/>
<path d="M13.9521 17.8581H18.6356C18.8552 17.8477 19.0723 17.9077 19.2556 18.0291C19.4388 18.1506 19.5786 18.3273 19.6545 18.5336C19.7428 18.7242 19.7654 18.9386 19.719 19.1434C19.6726 19.3482 19.5597 19.5319 19.3979 19.6658C19.1734 19.8445 18.8993 19.9499 18.6129 19.9677C15.4995 19.9903 12.386 19.9677 9.2725 19.9677C9.12922 19.9754 8.98587 19.9538 8.85127 19.9041C8.71666 19.8544 8.59363 19.7777 8.48972 19.6788C8.38582 19.5798 8.30324 19.4607 8.24705 19.3286C8.19086 19.1966 8.16224 19.0545 8.16297 18.911C8.16215 18.765 8.19137 18.6204 8.24882 18.4862C8.30628 18.352 8.39072 18.2311 8.49691 18.1309C8.6031 18.0307 8.72877 17.9535 8.86609 17.904C9.00341 17.8544 9.14945 17.8337 9.29514 17.843L13.9521 17.8581ZM8.54036 19.3676L8.51394 19.4318C8.73265 19.5288 8.96383 19.5949 9.20079 19.628C12.3633 19.6431 15.5284 19.6431 18.696 19.628C18.9317 19.5948 19.1616 19.5288 19.379 19.4318L19.3526 19.3676H8.54036ZM8.54036 18.5034H19.3715C19.139 18.348 18.8694 18.2568 18.5903 18.2392C17.6091 18.2166 16.6316 18.2392 15.6504 18.2392H9.41968C9.26206 18.21 9.09982 18.2172 8.94543 18.2604C8.79104 18.3035 8.64859 18.3815 8.52904 18.4883L8.54036 18.5034ZM8.54036 18.8808C9.0989 19.1186 19.1413 19.0733 19.4055 18.8808H8.54036ZM9.04984 19.2054V19.228H18.9262V19.2054H9.04984ZM9.1857 18.6657H18.8922H9.1857Z" stroke="#B62C26" stroke-width="0.4" stroke-miterlimit="10"/>
<path d="M5.39292 19.5869C5.10232 19.5869 4.80796 19.5869 4.51737 19.5869C4.41257 19.5932 4.3076 19.5777 4.20916 19.5411C4.11073 19.5046 4.021 19.448 3.9457 19.3748C3.8704 19.3016 3.8112 19.2136 3.77187 19.1162C3.73254 19.0189 3.71396 18.9144 3.7173 18.8095C3.71144 18.7065 3.72786 18.6035 3.76542 18.5075C3.80298 18.4115 3.86081 18.3247 3.93495 18.2531C4.0091 18.1814 4.09782 18.1266 4.19508 18.0924C4.29233 18.0581 4.39582 18.0453 4.49849 18.0547C5.10609 18.0358 5.71747 18.0358 6.32507 18.0547C6.52525 18.0547 6.71724 18.1342 6.85878 18.2757C7.00033 18.4173 7.07985 18.6093 7.07985 18.8095C7.07985 19.0096 7.00033 19.2016 6.85878 19.3432C6.71724 19.4847 6.52525 19.5642 6.32507 19.5642C6.01939 19.5642 5.71747 19.5642 5.41179 19.5642L5.39292 19.5869ZM5.41179 18.217C5.09478 18.217 4.77399 18.217 4.45698 18.217C4.38056 18.2154 4.30461 18.2293 4.23366 18.2577C4.16271 18.2862 4.0982 18.3286 4.04397 18.3824C3.98975 18.4363 3.94691 18.5005 3.91802 18.5713C3.88913 18.6421 3.87477 18.7179 3.8758 18.7944C3.86907 18.871 3.87813 18.9481 3.90241 19.0211C3.92669 19.0941 3.96568 19.1613 4.01697 19.2186C4.06825 19.2759 4.13075 19.3221 4.20059 19.3543C4.27044 19.3864 4.34614 19.404 4.42302 19.4057C5.06836 19.4284 5.71747 19.4284 6.36281 19.4057C6.44046 19.4038 6.51695 19.3865 6.58789 19.3548C6.65882 19.3232 6.72279 19.2778 6.77611 19.2213C6.82943 19.1649 6.87105 19.0984 6.89857 19.0258C6.92609 18.9531 6.93896 18.8758 6.93644 18.7981C6.93156 18.6439 6.86711 18.4976 6.75662 18.39C6.64613 18.2823 6.49821 18.2216 6.34394 18.2207C6.01938 18.2056 5.7137 18.217 5.42688 18.217H5.41179Z" fill="black" stroke="#B62C26" stroke-width="0.4" stroke-miterlimit="10"/>
<path d="M22.1529 19.5868C21.8623 19.5868 21.5717 19.5868 21.2773 19.5868C21.1722 19.5893 21.0676 19.5708 20.9697 19.5322C20.8718 19.4937 20.7826 19.436 20.7074 19.3625C20.6321 19.289 20.5723 19.2012 20.5315 19.1043C20.4907 19.0074 20.4697 18.9032 20.4697 18.798C20.4694 18.6943 20.4906 18.5916 20.5318 18.4964C20.573 18.4012 20.6333 18.3156 20.7091 18.2447C20.7849 18.1739 20.8745 18.1195 20.9722 18.0848C21.07 18.0501 21.1738 18.036 21.2773 18.0433C21.8585 18.0433 22.4435 18.0433 23.0246 18.0433C23.129 18.0344 23.2341 18.0473 23.3332 18.0812C23.4323 18.1151 23.5233 18.1693 23.6003 18.2403C23.6774 18.3113 23.7388 18.3975 23.7806 18.4936C23.8225 18.5896 23.844 18.6933 23.8436 18.798C23.8415 18.9051 23.8173 19.0105 23.7724 19.1077C23.7275 19.2049 23.6629 19.2917 23.5828 19.3626C23.5026 19.4336 23.4086 19.4871 23.3067 19.5198C23.2048 19.5526 23.0972 19.5638 22.9907 19.5528L22.1529 19.5868ZM22.1755 19.4207C22.4812 19.4207 22.7869 19.4207 23.0888 19.4207C23.1676 19.419 23.2453 19.4018 23.3174 19.37C23.3896 19.3382 23.4547 19.2926 23.5092 19.2356C23.5637 19.1787 23.6065 19.1116 23.635 19.0381C23.6636 18.9646 23.6774 18.8863 23.6756 18.8075C23.6739 18.7287 23.6567 18.651 23.6249 18.5788C23.5932 18.5067 23.5475 18.4415 23.4906 18.387C23.4336 18.3326 23.3665 18.2898 23.293 18.2613C23.2195 18.2327 23.1412 18.2189 23.0624 18.2206C22.4661 18.2206 21.8698 18.2206 21.2735 18.2206C21.1938 18.2155 21.1139 18.2264 21.0384 18.2526C20.9629 18.2788 20.8934 18.3199 20.834 18.3733C20.7746 18.4267 20.7265 18.4915 20.6924 18.5638C20.6584 18.6361 20.6391 18.7144 20.6358 18.7943C20.6337 18.8771 20.6485 18.9595 20.6792 19.0364C20.71 19.1134 20.756 19.1833 20.8146 19.2419C20.8732 19.3004 20.9431 19.3465 21.0201 19.3773C21.097 19.408 21.1794 19.4228 21.2622 19.4207C21.5641 19.4358 21.8698 19.4207 22.1755 19.4207Z" fill="black" stroke="#B62C26" stroke-width="0.4" stroke-miterlimit="10"/>
<path d="M24.5304 6.17824C23.6775 6.65376 23.5001 6.57828 23.3643 5.69141L24.5304 6.17824Z" stroke="#B62C26" stroke-width="0.4" stroke-miterlimit="10"/>
<path d="M25.7418 5.07617C25.5645 5.19693 25.4588 5.32525 25.3645 5.3177C25.3072 5.30124 25.2554 5.26984 25.2143 5.22673C25.1731 5.18363 25.1442 5.13036 25.1305 5.07239C25.1447 5.01362 25.1741 4.95964 25.2159 4.91591C25.2576 4.87217 25.3102 4.84024 25.3682 4.82332C25.4626 4.81955 25.5682 4.94786 25.7418 5.07617Z" stroke="#B62C26" stroke-width="0.4" stroke-miterlimit="10"/>
<path d="M23.5417 3.92139C23.67 4.09876 23.8096 4.2082 23.7983 4.29878C23.787 4.38935 23.636 4.47615 23.5492 4.56672C23.4624 4.47615 23.3152 4.3969 23.3039 4.29878C23.2926 4.20066 23.4058 4.09876 23.5417 3.92139Z" stroke="#B62C26" stroke-width="0.4" stroke-miterlimit="10"/>
<path d="M8.09127 16.2695C6.74776 15.9903 5.49105 15.7412 4.24188 15.4695C4.10148 15.4376 3.96888 15.378 3.85187 15.2941C3.73486 15.2103 3.63582 15.1038 3.56056 14.9811C3.48531 14.8584 3.43536 14.7218 3.41367 14.5795C3.39198 14.4372 3.39898 14.292 3.43426 14.1524C3.46507 14.013 3.52379 13.8813 3.6069 13.7652C3.69 13.6492 3.79577 13.5512 3.9178 13.4771C4.03983 13.403 4.1756 13.3545 4.31691 13.3343C4.45823 13.3142 4.60217 13.3229 4.74003 13.3599C5.15139 13.4467 5.55898 13.5523 5.97033 13.6127C6.15485 13.6335 6.3329 13.693 6.49287 13.7873C6.65284 13.8816 6.79112 14.0086 6.89871 14.1599C7.2761 14.677 7.60443 15.2091 7.93654 15.7487C8.00698 15.9162 8.05887 16.0908 8.09127 16.2695V16.2695Z" fill="white" stroke="#B62C26" stroke-width="0.4" stroke-miterlimit="10"/>
<path d="M20.4131 14.356C20.3019 14.4191 20.1806 14.4625 20.0546 14.4843H8.22712C8.01201 14.4843 7.80067 14.5296 7.58556 14.541C7.51699 14.533 7.45047 14.5126 7.38931 14.4806C7.41573 14.4089 7.42705 14.2881 7.47234 14.273C7.75872 14.1509 8.06124 14.0708 8.37053 14.0352C10.4801 14.0164 12.5935 14.0352 14.7032 14.0352C16.3184 14.0352 17.9336 14.0352 19.5489 14.0352C19.8367 14.0588 20.122 14.1068 20.4018 14.1787L20.4131 14.356Z" fill="white" stroke="#B62C26" stroke-width="0.4" stroke-miterlimit="10"/>
<path d="M8.16297 15.7109H19.5036C19.5224 16.0544 19.3753 16.1525 19.0545 16.1487C15.5699 16.1487 12.0891 16.1487 8.61207 16.1487C8.29128 16.1487 8.13278 16.0619 8.16297 15.7109Z" fill="white" stroke="#B62C26" stroke-width="0.4" stroke-miterlimit="10"/>
<path d="M7.812 15.0015H19.8885C19.6809 15.2241 8.11768 15.2581 7.812 15.0015Z" fill="white" stroke="#B62C26" stroke-width="0.4" stroke-miterlimit="10"/>
<path d="M7.21949 14.2504L6.7402 13.7334H20.8999L20.5225 14.0051C20.1422 13.9343 19.7577 13.8877 19.3715 13.8655C15.7334 13.8655 12.0992 13.8655 8.46488 13.8655C8.2419 13.8384 8.01571 13.8587 7.80111 13.925C7.58651 13.9914 7.38831 14.1023 7.21949 14.2504V14.2504Z" fill="white" stroke="#B62C26" stroke-width="0.4" stroke-miterlimit="10"/>
<path d="M20.0772 14.7599H7.62331V14.6882C7.79405 14.6554 7.96676 14.634 8.14033 14.624C9.24609 14.624 10.3518 14.624 11.4576 14.624H20.0961L20.0772 14.7599Z" fill="white" stroke="#B62C26" stroke-width="0.4" stroke-miterlimit="10"/>
<path d="M19.6734 15.375C19.4658 15.575 8.29506 15.6052 7.93654 15.375H19.6734Z" fill="white" stroke="#B62C26" stroke-width="0.4" stroke-miterlimit="10"/>
<path d="M19.4394 16.3863H8.24222V16.3335H19.4394V16.3863Z" fill="white" stroke="#B62C26" stroke-width="0.4" stroke-miterlimit="10"/>
<path d="M4.33623 13.0841C2.99272 13.5559 3.00026 14.7258 3.7324 15.439C3.47994 15.3107 3.27878 15.1001 3.16207 14.8421C3.04537 14.584 3.02011 14.2939 3.09045 14.0196C3.16079 13.7452 3.32254 13.5031 3.54901 13.333C3.77549 13.1629 4.05316 13.0752 4.33623 13.0841Z" fill="white" stroke="#B62C26" stroke-width="0.4" stroke-miterlimit="10"/>
<path d="M24.0021 15.3711C24.7342 14.3673 24.504 13.6955 23.3077 13.0766C23.5813 13.0637 23.8517 13.1409 24.0773 13.2963C24.3029 13.4517 24.4713 13.6768 24.5568 13.937C24.6439 14.2034 24.6362 14.4916 24.5351 14.753C24.434 15.0143 24.2457 15.2327 24.0021 15.3711Z" fill="white" stroke="#B62C26" stroke-width="0.4" stroke-miterlimit="10"/>
<path d="M8.54037 19.3525H19.3526L19.379 19.4167C19.1616 19.5137 18.9317 19.5797 18.696 19.6129C15.5284 19.628 12.3633 19.628 9.2008 19.6129C8.96384 19.5798 8.73266 19.5137 8.51395 19.4167L8.54037 19.3525Z" fill="white" stroke="#B62C26" stroke-width="0.4" stroke-miterlimit="10"/>
<path d="M8.52904 18.4887C8.64622 18.3772 8.78758 18.2944 8.94208 18.2466C9.09658 18.1988 9.26003 18.1873 9.41968 18.2132H15.6391C16.6203 18.2132 17.5977 18.2132 18.579 18.2132C18.8581 18.2308 19.1276 18.3219 19.3602 18.4774L8.52904 18.4887Z" fill="white" stroke="#B62C26" stroke-width="0.4" stroke-miterlimit="10"/>
<path d="M8.53281 18.8584H19.3904C19.1337 19.0509 9.09135 19.0962 8.53281 18.8584Z" fill="white" stroke="#B62C26" stroke-width="0.4" stroke-miterlimit="10"/>
<path d="M9.04229 19.1831H18.9148V19.2057H9.03851L9.04229 19.1831Z" fill="white" stroke="#B62C26" stroke-width="0.4" stroke-miterlimit="10"/>
<path d="M14.0276 18.6623C17.8189 18.6623 20.8924 18.6572 20.8924 18.651C20.8924 18.6447 17.8189 18.6396 14.0276 18.6396C10.2363 18.6396 7.16289 18.6447 7.16289 18.651C7.16289 18.6572 10.2363 18.6623 14.0276 18.6623Z" fill="white" stroke="#B62C26" stroke-width="0.4" stroke-miterlimit="10"/>
<path d="M8.49508 3.99658C8.04599 4.6155 7.50254 5.28348 7.04967 6.00807C6.1146 7.38803 5.38609 8.89717 4.88722 10.4877C4.86081 10.5896 4.74759 10.6689 4.61172 10.8425C4.74004 9.2008 7.64595 4.27208 8.49508 3.99658Z" fill="white" stroke="#B62C26" stroke-width="0.4" stroke-miterlimit="10"/>
<path d="M23.202 10.771C23.1185 10.6796 23.0486 10.5767 22.9944 10.4653C22.2733 8.29089 21.1719 6.26174 19.7413 4.47237C19.5797 4.30558 19.4379 4.1207 19.3186 3.92139C19.4709 4.0121 19.6104 4.1225 19.7338 4.24972C20.3904 5.18187 21.0886 6.09139 21.6585 7.07638C22.2283 8.06137 22.6661 9.12561 23.168 10.1559C23.234 10.332 23.2882 10.5123 23.3303 10.6956L23.202 10.771Z" fill="white" stroke="#B62C26" stroke-width="0.4" stroke-miterlimit="10"/>
</g>
<defs>
<clipPath id="clip0_5394_15701">
<rect width="28.4477" height="25.1795" fill="white" transform="translate(0 0.77002)"/>
</clipPath>
</defs>
</svg>
