<svg width="25" height="27" viewBox="0 0 25 27" fill="none" xmlns="http://www.w3.org/2000/svg">
<g clip-path="url(#clip0_5394_15634)">
<path d="M16.1532 16.9141L16.6337 16.6802L15.4559 11.9775L4.92377 16.1912L6.19935 26.4172H8.1425C8.76734 24.4135 9.77849 22.5515 11.1189 20.9364C12.4982 19.2593 14.213 17.8892 16.1532 16.9141Z" stroke="#B62A25" stroke-width="0.8" stroke-miterlimit="10"/>
<path d="M17.4713 17.5436C15.3526 18.4642 13.4828 19.8749 12.016 21.6595C10.8502 23.0727 9.94859 24.6845 9.35431 26.4174H23.6196C23.8557 26.4163 24.0817 26.3217 24.2483 26.1544C24.4148 25.9871 24.5083 25.7606 24.5083 25.5245V16.1064C22.1009 16.2067 19.7252 16.6919 17.4713 17.5436Z" stroke="#B62A25" stroke-width="0.8" stroke-miterlimit="10"/>
<path d="M23.6026 4.68564H19.7758L22.1484 15.1497C22.9318 15.0549 23.7194 14.9995 24.5083 14.9839V5.57854C24.5083 5.4602 24.4848 5.34304 24.4391 5.23387C24.3934 5.1247 24.3265 5.02568 24.2423 4.9426C24.158 4.85952 24.058 4.79402 23.9482 4.74991C23.8384 4.70579 23.7209 4.68395 23.6026 4.68564Z" stroke="#B62A25" stroke-width="0.8" stroke-miterlimit="10"/>
<path d="M1.42015 17.5646V25.5243C1.41959 25.6413 1.44217 25.7574 1.48657 25.8657C1.53098 25.974 1.59635 26.0724 1.67893 26.1554C1.7615 26.2384 1.85966 26.3042 1.96775 26.3491C2.07585 26.3941 2.19175 26.4172 2.30881 26.4172H5.05983L3.83526 16.6377L1.42015 17.5646Z" stroke="#B62A25" stroke-width="0.8" stroke-miterlimit="10"/>
<path d="M7.4962 12.892C8.44864 12.1224 11.2932 9.55001 11.2932 6.35679C11.2932 5.35541 10.8954 4.39503 10.1873 3.68694C9.47922 2.97885 8.51885 2.58105 7.51746 2.58105C6.51607 2.58105 5.5557 2.97885 4.84761 3.68694C4.13952 4.39503 3.74172 5.35541 3.74172 6.35679C3.74172 9.86466 6.53951 12.199 7.4962 12.892ZM5.50203 6.35679C5.50203 5.95818 5.62023 5.56851 5.84169 5.23707C6.06315 4.90564 6.37792 4.64732 6.74619 4.49477C7.11446 4.34223 7.51969 4.30233 7.91065 4.38009C8.3016 4.45786 8.66072 4.64981 8.94258 4.93167C9.22444 5.21353 9.41639 5.57264 9.49416 5.9636C9.57193 6.35455 9.53202 6.75979 9.37947 7.12806C9.22693 7.49633 8.96861 7.8111 8.63717 8.03256C8.30574 8.25402 7.91607 8.37222 7.51746 8.37222C6.98328 8.37109 6.4713 8.15839 6.09358 7.78067C5.71586 7.40295 5.50315 6.89097 5.50203 6.35679V6.35679Z" stroke="#B62A25" stroke-miterlimit="10"/>
<path d="M8.39761 6.35672C8.39761 6.18265 8.34599 6.01248 8.24928 5.86774C8.15256 5.723 8.0151 5.61018 7.85427 5.54356C7.69345 5.47694 7.51648 5.45951 7.34574 5.49347C7.17501 5.52744 7.01818 5.61127 6.89509 5.73436C6.772 5.85745 6.68817 6.01428 6.65421 6.18501C6.62025 6.35575 6.63768 6.53271 6.7043 6.69354C6.77091 6.85437 6.88373 6.99183 7.02847 7.08854C7.17321 7.18525 7.34337 7.23688 7.51745 7.23688C7.75088 7.23688 7.97476 7.14415 8.13982 6.97909C8.30488 6.81403 8.39761 6.59016 8.39761 6.35672V6.35672Z" stroke="#B62A25" stroke-miterlimit="10"/>
<path d="M12.4157 6.70097L13.8826 6.18223L13.6743 4.68555H12.1351C12.327 5.22175 12.4248 5.78706 12.4242 6.35656C12.4242 6.47137 12.4242 6.58617 12.4157 6.70097Z" stroke="#B62A25" stroke-miterlimit="10"/>
<path d="M1.42015 11.7738V16.3744L7.19856 14.0613C5.93266 13.2262 4.84807 12.1445 4.00959 10.8809L1.42015 11.7738Z" stroke="#B62A25" stroke-width="0.8" stroke-miterlimit="10"/>
<path d="M14.6948 7.09655L12.2329 7.9682C11.5951 10.6172 9.55414 12.6454 8.49541 13.5425L15.6387 10.6852C15.7138 10.6555 15.7943 10.6421 15.8749 10.6459C15.9556 10.6497 16.0345 10.6705 16.1064 10.7071C16.1784 10.7437 16.2418 10.7952 16.2924 10.8581C16.3429 10.921 16.3795 10.994 16.3998 11.0721L17.6754 16.234C18.7483 15.8258 19.8573 15.5197 20.9877 15.3198L18.5981 4.68994H14.8011L15.0477 6.48852C15.0669 6.61491 15.0424 6.74407 14.9782 6.85464C14.914 6.96521 14.814 7.05055 14.6948 7.09655V7.09655Z" stroke="#B62A25" stroke-width="0.8" stroke-miterlimit="10"/>
<path d="M2.6107 6.35656C2.6095 5.78664 2.70881 5.22097 2.90408 4.68555H2.30881C2.07273 4.68667 1.84671 4.78124 1.68017 4.94857C1.51364 5.1159 1.42015 5.34237 1.42015 5.57845V10.5788L3.43983 9.87718C2.89652 8.78297 2.61279 7.57823 2.6107 6.35656V6.35656Z" stroke="#B62A25" stroke-miterlimit="10"/>
<path d="M7.89143 14.7829C11.6975 14.7829 14.7829 11.6975 14.7829 7.89143C14.7829 4.0854 11.6975 1 7.89143 1C4.0854 1 1 4.0854 1 7.89143C1 11.6975 4.0854 14.7829 7.89143 14.7829Z" fill="white" stroke="#B62A25" stroke-width="0.8" stroke-linecap="round" stroke-linejoin="round"/>
<path d="M2.73641 10.0204L4.08722 9.58154" stroke="#B62A25" stroke-width="0.8" stroke-linecap="round" stroke-linejoin="round"/>
<path d="M2.73641 5.75845L4.79697 5.06396" stroke="#B62A25" stroke-width="0.8" stroke-linecap="round" stroke-linejoin="round"/>
<path d="M3.81248 11.4212L5.86541 10.7534" stroke="#B62A25" stroke-width="0.8" stroke-linecap="round" stroke-linejoin="round"/>
<path d="M7.3307 9.30352L6.85372 10.6429C6.84285 10.6744 6.84099 10.7084 6.84836 10.7409C6.85572 10.7734 6.87201 10.8033 6.8954 10.8271C6.91879 10.8509 6.94835 10.8676 6.98076 10.8756C7.01317 10.8835 7.04714 10.8822 7.07885 10.8718L7.52531 10.7268C7.55977 10.7133 7.59005 10.691 7.61307 10.662L9.69653 7.81152" stroke="#B62A25" stroke-width="0.8" stroke-linecap="round" stroke-linejoin="round"/>
<path d="M11.3068 5.75448L9.34929 6.39173L6.51411 4.39603C6.49134 4.37933 6.4648 4.36851 6.43684 4.36452C6.40889 4.36053 6.38038 4.36348 6.35384 4.37314L5.81199 4.54868C5.78653 4.55732 5.76334 4.57158 5.74413 4.5904C5.72493 4.60922 5.7102 4.63211 5.70104 4.65739C5.69188 4.68268 5.68852 4.7097 5.69121 4.73645C5.69391 4.76321 5.70258 4.78901 5.71659 4.81196L7.15136 7.10147L4.97632 7.80741C4.86511 7.84398 4.74654 7.85231 4.6313 7.83166C4.51607 7.81101 4.40777 7.76203 4.31618 7.68912L3.68275 7.18924C3.65967 7.17029 3.63214 7.15754 3.60276 7.1522C3.57338 7.14686 3.54312 7.14911 3.51485 7.15872L3.17142 7.27319C3.14399 7.28171 3.11908 7.29684 3.09886 7.31723C3.07863 7.33763 3.06373 7.36267 3.05544 7.39016C3.04715 7.41766 3.04574 7.44678 3.05132 7.47495C3.05691 7.50312 3.06932 7.52949 3.08747 7.55175L3.77814 8.45229C4.00317 8.74147 4.3117 8.95443 4.66188 9.06228C5.01206 9.17013 5.38695 9.16767 5.73567 9.0552L12.7301 6.78476C12.8467 6.74632 12.9433 6.66342 12.9991 6.55408C13.0548 6.44475 13.0651 6.31783 13.0278 6.20094C13.0034 6.12837 12.9618 6.06274 12.9067 6.00961C12.8516 5.95647 12.7845 5.9174 12.7111 5.89567L12.131 5.73158C11.8599 5.65885 11.5735 5.66681 11.3068 5.75448V5.75448Z" stroke="#B62A25" stroke-width="0.8" stroke-linecap="round" stroke-linejoin="round"/>
</g>
<defs>
<clipPath id="clip0_5394_15634">
<rect width="24.7039" height="26.63" fill="white"/>
</clipPath>
</defs>
</svg>
