<svg width="35" height="29" viewBox="0 0 35 29" fill="none" xmlns="http://www.w3.org/2000/svg">
<path d="M29.5909 5.78947C30.8781 5.78947 31.925 4.74219 31.925 3.45497C31.925 3.28619 31.906 3.12247 31.8717 2.9638H33.2803C33.5245 2.9638 33.7236 2.76508 33.7236 2.52085C33.7236 2.27663 33.5245 2.07752 33.2803 2.07752H32.0821V2.02463C32.0821 1.03802 31.2795 0.235352 30.2925 0.235352H29.0453C28.0583 0.235352 27.2556 1.03802 27.2556 2.02463V2.9638H27.3085C27.2747 3.12247 27.2556 3.28658 27.2556 3.45497C27.256 4.74219 28.3033 5.78947 29.5909 5.78947Z" fill="#B72618"/>
<path d="M34.9915 13.5627C34.9511 13.2147 34.7784 12.9032 34.4992 12.6815L32.3684 11.208L31.1139 8.31776C30.6239 7.51626 29.7205 6.95043 29.2729 6.85476C29.1103 6.78943 28.9563 6.73887 28.8023 6.69998C28.5982 6.64671 28.3882 6.61987 28.1785 6.61987C27.8122 6.61987 27.4638 6.70737 27.1468 6.8536C27.1324 6.85904 27.1173 6.86137 27.1029 6.8676L23.0448 8.5966C22.8889 8.6631 22.7512 8.75954 22.6361 8.8836L19.7113 12.0293C19.4923 12.2642 19.3788 12.5699 19.3904 12.8903C19.3982 13.0992 19.4635 13.2955 19.5697 13.469L16.0495 23.4273C16.0394 23.4273 16.0296 23.4257 16.0195 23.4257C15.7877 23.4257 15.5641 23.4607 15.3522 23.523V16.3748C15.3522 16.0707 15.1045 15.8226 14.8004 15.8226H1.65589C1.35139 15.8226 1.10367 16.0707 1.10367 16.3748V24.0736C1.10367 24.3781 1.35139 24.6255 1.65589 24.6255H2.45156C2.37845 24.7534 2.31817 24.8891 2.26995 25.0303H0.759112C0.340278 25.0299 0 25.3706 0 25.7894C0 26.2082 0.340278 26.5481 0.759112 26.5481H2.26995C2.58689 27.4795 3.46851 28.1523 4.50606 28.1523C5.54323 28.1523 6.42484 27.4795 6.74179 26.5481H13.7838C14.1011 27.4795 14.9827 28.1523 16.0199 28.1523C17.3231 28.1523 18.3832 27.0922 18.3832 25.7894C18.3832 25.0373 18.0289 24.368 17.4806 23.9344L21.0039 13.9683C21.1789 13.9038 21.3407 13.8034 21.4698 13.6646L24.2212 10.7055L25.2899 10.2502L23.8401 15.5083C23.7483 15.8634 23.7374 16.2289 23.8055 16.5762V21.3195L21.6471 26.1573C21.4931 26.5042 21.4823 26.89 21.6184 27.2446C21.7541 27.5993 22.0197 27.8797 22.3662 28.0337C22.5498 28.1161 22.7446 28.1574 22.9445 28.1574C23.5053 28.1574 24.0155 27.8264 24.2434 27.3146L26.5246 22.2003C26.6063 22.0164 26.6475 21.822 26.6475 21.6217V18.5782C26.7346 18.5634 26.8225 18.5432 26.9119 18.5183L28.6289 21.1169L29.1834 26.8729C29.2585 27.651 29.9422 28.2305 30.7343 28.1515C31.1127 28.1146 31.4538 27.9334 31.6949 27.6409C31.9364 27.3477 32.0492 26.9786 32.0126 26.6002L31.4242 20.4927C31.4017 20.2625 31.3227 20.0385 31.1952 19.8452L28.7949 16.2122L29.9212 12.125L30.1016 12.5664C30.1864 12.7593 30.3194 12.9312 30.4901 13.0669L32.8732 14.7379C33.1038 14.9215 33.3932 15.0226 33.6876 15.0226C34.0908 15.0226 34.4649 14.8418 34.715 14.5268C34.9332 14.253 35.0308 13.9104 34.9915 13.5627ZM16.0195 26.6345C15.5536 26.6345 15.1745 26.2549 15.1745 25.789C15.1745 25.3231 15.5536 24.944 16.0195 24.944C16.4858 24.944 16.865 25.3231 16.865 25.789C16.865 26.2549 16.4858 26.6345 16.0195 26.6345ZM13.965 24.6251C13.8923 24.753 13.8312 24.8887 13.7834 25.0299H6.7414C6.69318 24.8887 6.63251 24.753 6.55979 24.6251H13.965ZM4.50567 24.9443C4.97156 24.9443 5.35073 25.3235 5.35073 25.7894C5.35073 26.2553 4.97156 26.6348 4.50567 26.6348C4.0394 26.6348 3.66062 26.2553 3.66062 25.7894C3.66062 25.3235 4.0394 24.9443 4.50567 24.9443Z" fill="#B72618"/>
<path d="M8.68318 15.4269H14.8004C15.1045 15.4269 15.3522 15.1791 15.3522 14.8746V11.2965C15.3522 10.992 15.1045 10.7446 14.8004 10.7446H8.68318C8.37868 10.7446 8.13135 10.9924 8.13135 11.2965V14.8746C8.13135 15.1791 8.37868 15.4269 8.68318 15.4269Z" fill="#B72618"/>
</svg>
