<svg width="33" height="33" viewBox="0 0 33 33" fill="none" xmlns="http://www.w3.org/2000/svg">
<path d="M26.3312 11C26.0913 10.5844 25.7467 10.2388 25.3319 9.99756C24.917 9.75634 24.4462 9.6279 23.9662 9.625H20.625V6.875C20.625 6.51033 20.4801 6.16059 20.2223 5.90273C19.9644 5.64487 19.6147 5.5 19.25 5.5H5.5C4.77065 5.5 4.07118 5.78973 3.55546 6.30546C3.03973 6.82118 2.75 7.52065 2.75 8.25V22C2.75049 22.4822 2.8778 22.9559 3.11913 23.3734C3.36047 23.7909 3.70736 24.1376 4.125 24.3787C4.07577 25.6551 4.53558 26.8987 5.40329 27.8361C6.271 28.7734 7.47552 29.3276 8.75187 29.3769C10.0282 29.4261 11.2719 28.9663 12.2092 28.0986C13.1465 27.2309 13.7008 26.0264 13.75 24.75H18.0125C18.1645 25.9005 18.7295 26.9565 19.6022 27.7214C20.4749 28.4863 21.5958 28.9081 22.7562 28.9081C23.9167 28.9081 25.0376 28.4863 25.9103 27.7214C26.783 26.9565 27.3479 25.9005 27.5 24.75C28.2293 24.75 28.9288 24.4603 29.4445 23.9445C29.9603 23.4288 30.25 22.7293 30.25 22V17.875C30.2478 17.6242 30.1816 17.378 30.0575 17.16L26.3312 11ZM20.625 12.375H23.9662L26.4412 16.5H20.625V12.375ZM8.9375 26.125C8.52958 26.125 8.13081 26.004 7.79164 25.7774C7.45246 25.5508 7.1881 25.2287 7.032 24.8518C6.87589 24.4749 6.83505 24.0602 6.91463 23.6601C6.99421 23.26 7.19065 22.8925 7.47909 22.6041C7.76754 22.3156 8.13504 22.1192 8.53513 22.0396C8.93521 21.96 9.34991 22.0009 9.72678 22.157C10.1037 22.3131 10.4258 22.5775 10.6524 22.9166C10.879 23.2558 11 23.6546 11 24.0625C11 24.6095 10.7827 25.1341 10.3959 25.5209C10.0091 25.9077 9.48451 26.125 8.9375 26.125ZM22.6875 26.125C22.2796 26.125 21.8808 26.004 21.5416 25.7774C21.2025 25.5508 20.9381 25.2287 20.782 24.8518C20.6259 24.4749 20.585 24.0602 20.6646 23.6601C20.7442 23.26 20.9406 22.8925 21.2291 22.6041C21.5175 22.3156 21.885 22.1192 22.2851 22.0396C22.6852 21.96 23.0999 22.0009 23.4768 22.157C23.8537 22.3131 24.1758 22.5775 24.4024 22.9166C24.629 23.2558 24.75 23.6546 24.75 24.0625C24.75 24.6095 24.5327 25.1341 24.1459 25.5209C23.7591 25.9077 23.2345 26.125 22.6875 26.125Z" fill="#B72618"/>
</svg>
